<svg width="20" height="19" viewBox="0 0 20 19" fill="none" xmlns="http://www.w3.org/2000/svg">
<path fill-rule="evenodd" clip-rule="evenodd" d="M9.22174 16.2892L9.22318 16.2905L10.0026 17L10.7775 16.2999C10.7778 16.2996 10.7782 16.2993 10.7786 16.2989C13.3734 13.9409 15.4459 12.0566 16.882 10.2996C18.3068 8.55653 19 7.06153 19 5.5C19 2.97228 17.0277 1 14.5 1C13.0628 1 11.6678 1.67394 10.7614 2.73834L10 3.6324L9.23865 2.73834C8.33224 1.67394 6.93721 1 5.5 1C2.97228 1 1 2.97228 1 5.5C1 7.06152 1.69324 8.55647 3.1178 10.2981C4.55384 12.0538 6.62662 13.936 9.22174 16.2892ZM11.45 17.04L10 18.35L8.55 17.03L8.53733 17.0185C3.39442 12.3549 0 9.2769 0 5.5C0 2.42 2.42 0 5.5 0C6.89468 0 8.24438 0.520398 9.28649 1.38611C9.54451 1.60045 9.78368 1.83597 10 2.09C10.2163 1.83597 10.4555 1.60045 10.7135 1.38611C11.7556 0.520398 13.1053 0 14.5 0C17.58 0 20 2.42 20 5.5C20 9.27033 16.6174 12.3442 11.4895 17.0041L11.45 17.04Z" fill="white"/>
</svg>
